Normalized EMG Linear Envelopes
nRows=43
nColumns=17

endheader
time	        VM	        VL	        RF	       GRA	        TA	   ADDLONG	   SEMIMEM	      BFLH	        GM	        GL	       TFL	   GLUTMAX	   GLUTMED	      PIRI	    OBTINT	        QF	
1.911	  0.014347	  0.021259	  0.016074	  0.234973	  0.095091	  0.257990	  0.078066	  0.045082	  0.365995	  0.222567	  0.223064	  0.004585	  0.494360	  0.143097	  0.643822	  0.254747	
1.9115	  0.013850	  0.019921	  0.016406	  0.237622	  0.096441	  0.261810	  0.078228	  0.044427	  0.360047	  0.218444	  0.225488	  0.004350	  0.494524	  0.142360	  0.640725	  0.256223	
1.912	  0.013374	  0.018618	  0.016756	  0.240263	  0.097845	  0.265641	  0.078389	  0.043803	  0.354114	  0.214351	  0.227908	  0.004131	  0.494607	  0.141630	  0.637479	  0.257680	
1.9125	  0.012920	  0.017350	  0.017124	  0.242895	  0.099304	  0.269482	  0.078550	  0.043208	  0.348198	  0.210288	  0.230321	  0.003926	  0.494610	  0.140907	  0.634088	  0.259116	
1.913	  0.012487	  0.016116	  0.017509	  0.245518	  0.100819	  0.273333	  0.078709	  0.042643	  0.342302	  0.206256	  0.232726	  0.003736	  0.494531	  0.140192	  0.630557	  0.260528	
1.9135	  0.012076	  0.014917	  0.017911	  0.248131	  0.102389	  0.277192	  0.078867	  0.042106	  0.336429	  0.202257	  0.235122	  0.003560	  0.494370	  0.139484	  0.626892	  0.261915	
1.914	  0.011685	  0.013751	  0.018332	  0.250734	  0.104016	  0.281058	  0.079022	  0.041598	  0.330581	  0.198290	  0.237507	  0.003398	  0.494126	  0.138784	  0.623099	  0.263274	
1.9145	  0.011315	  0.012619	  0.018771	  0.253327	  0.105699	  0.284931	  0.079176	  0.041118	  0.324760	  0.194358	  0.239882	  0.003249	  0.493800	  0.138092	  0.619183	  0.264602	
1.915	  0.010965	  0.011519	  0.019228	  0.255908	  0.107439	  0.288808	  0.079327	  0.040667	  0.318969	  0.190461	  0.242243	  0.003113	  0.493392	  0.137409	  0.615150	  0.265899	
1.9155	  0.010634	  0.010452	  0.019704	  0.258478	  0.109236	  0.292689	  0.079476	  0.040243	  0.313211	  0.186600	  0.244591	  0.002991	  0.492901	  0.136733	  0.611006	  0.267161	
1.916	  0.010324	  0.009416	  0.020198	  0.261036	  0.111090	  0.296573	  0.079622	  0.039847	  0.307486	  0.182776	  0.246923	  0.002880	  0.492328	  0.136067	  0.606755	  0.268387	
1.9165	  0.010033	  0.008412	  0.020712	  0.263581	  0.113002	  0.300458	  0.079765	  0.039477	  0.301798	  0.178989	  0.249238	  0.002782	  0.491674	  0.135409	  0.602404	  0.269574	
1.917	  0.009761	  0.007440	  0.021244	  0.266114	  0.114971	  0.304343	  0.079906	  0.039135	  0.296148	  0.175241	  0.251535	  0.002695	  0.490940	  0.134760	  0.597957	  0.270722	
1.9175	  0.009508	  0.006498	  0.021796	  0.268633	  0.116998	  0.308226	  0.080042	  0.038819	  0.290538	  0.171533	  0.253812	  0.002620	  0.490127	  0.134119	  0.593419	  0.271828	
1.918	  0.009273	  0.005586	  0.022367	  0.271139	  0.119084	  0.312107	  0.080175	  0.038529	  0.284971	  0.167865	  0.256068	  0.002555	  0.489236	  0.133488	  0.588796	  0.272890	
1.9185	  0.009056	  0.004704	  0.022958	  0.273631	  0.121227	  0.315984	  0.080304	  0.038266	  0.279447	  0.164237	  0.258301	  0.002502	  0.488268	  0.132865	  0.584092	  0.273905	
1.919	  0.008857	  0.003851	  0.023568	  0.276110	  0.123429	  0.319855	  0.080428	  0.038027	  0.273968	  0.160651	  0.260510	  0.002458	  0.487225	  0.132252	  0.579312	  0.274873	
1.9195	  0.008676	  0.003027	  0.024199	  0.278576	  0.125688	  0.323718	  0.080548	  0.037814	  0.268537	  0.157107	  0.262693	  0.002425	  0.486108	  0.131648	  0.574460	  0.275791	
1.92	  0.008512	  0.002232	  0.024849	  0.281027	  0.128006	  0.327574	  0.080663	  0.037626	  0.263154	  0.153605	  0.264849	  0.002401	  0.484919	  0.131053	  0.569542	  0.276657	
1.9205	  0.008365	  0.001465	  0.025520	  0.283464	  0.130382	  0.331419	  0.080772	  0.037462	  0.257821	  0.150147	  0.266977	  0.002387	  0.483659	  0.130467	  0.564563	  0.277469	
1.921	  0.008235	  0.000725	  0.026212	  0.285887	  0.132816	  0.335255	  0.080876	  0.037323	  0.252539	  0.146732	  0.269076	  0.002382	  0.482329	  0.129890	  0.559526	  0.278225	
1.9215	  0.008121	  0.000013	  0.026924	  0.288296	  0.135308	  0.339078	  0.080975	  0.037207	  0.247310	  0.143361	  0.271144	  0.002385	  0.480930	  0.129323	  0.554436	  0.278922	
1.922	  0.008023	  0.000000	  0.027656	  0.290690	  0.137857	  0.342889	  0.081068	  0.037114	  0.242135	  0.140035	  0.273180	  0.002397	  0.479464	  0.128764	  0.549299	  0.279559	
1.9225	  0.007941	  0.000000	  0.028410	  0.293070	  0.140464	  0.346687	  0.081155	  0.037044	  0.237015	  0.136754	  0.275184	  0.002417	  0.477931	  0.128215	  0.544118	  0.280134	
1.923	  0.007874	  0.000000	  0.029185	  0.295435	  0.143128	  0.350470	  0.081236	  0.036997	  0.231950	  0.133518	  0.277154	  0.002445	  0.476333	  0.127675	  0.538898	  0.280643	
1.9235	  0.007822	  0.000000	  0.029981	  0.297786	  0.145849	  0.354237	  0.081312	  0.036972	  0.226943	  0.130328	  0.279089	  0.002481	  0.474671	  0.127144	  0.533642	  0.281087	
1.924	  0.007785	  0.000000	  0.030798	  0.300123	  0.148627	  0.357989	  0.081382	  0.036969	  0.221993	  0.127184	  0.280988	  0.002525	  0.472944	  0.126623	  0.528357	  0.281463	
1.9245	  0.007762	  0.000000	  0.031637	  0.302445	  0.151461	  0.361722	  0.081446	  0.036986	  0.217102	  0.124086	  0.282850	  0.002575	  0.471155	  0.126110	  0.523044	  0.281770	
1.925	  0.007754	  0.000000	  0.032498	  0.304754	  0.154351	  0.365438	  0.081505	  0.037025	  0.212271	  0.121035	  0.284676	  0.002632	  0.469305	  0.125606	  0.517709	  0.282007	
1.9255	  0.007760	  0.000000	  0.033380	  0.307049	  0.157298	  0.369134	  0.081558	  0.037084	  0.207500	  0.118031	  0.286466	  0.002696	  0.467394	  0.125110	  0.512356	  0.282176	
1.926	  0.007779	  0.000000	  0.034284	  0.309330	  0.160299	  0.372809	  0.081606	  0.037163	  0.202790	  0.115074	  0.288218	  0.002767	  0.465424	  0.124624	  0.506988	  0.282274	
1.9265	  0.007811	  0.000000	  0.035211	  0.311597	  0.163355	  0.376465	  0.081648	  0.037261	  0.198142	  0.112164	  0.289933	  0.002844	  0.463397	  0.124146	  0.501609	  0.282304	
1.927	  0.007857	  0.000000	  0.036159	  0.313850	  0.166466	  0.380098	  0.081685	  0.037378	  0.193556	  0.109301	  0.291612	  0.002926	  0.461314	  0.123677	  0.496223	  0.282265	
1.9275	  0.007916	  0.000000	  0.037130	  0.316090	  0.169630	  0.383710	  0.081716	  0.037513	  0.189034	  0.106487	  0.293254	  0.003015	  0.459177	  0.123217	  0.490832	  0.282158	
1.928	  0.007987	  0.000000	  0.038124	  0.318315	  0.172848	  0.387298	  0.081742	  0.037667	  0.184574	  0.103720	  0.294859	  0.003109	  0.456989	  0.122765	  0.485441	  0.281983	
1.9285	  0.008070	  0.000000	  0.039140	  0.320528	  0.176118	  0.390864	  0.081762	  0.037838	  0.180179	  0.101000	  0.296429	  0.003208	  0.454751	  0.122321	  0.480052	  0.281742	
1.929	  0.008166	  0.000000	  0.040179	  0.322726	  0.179441	  0.394405	  0.081777	  0.038026	  0.175848	  0.098329	  0.297964	  0.003313	  0.452466	  0.121887	  0.474667	  0.281434	
1.9295	  0.008273	  0.000000	  0.041241	  0.324912	  0.182814	  0.397920	  0.081788	  0.038230	  0.171581	  0.095706	  0.299464	  0.003422	  0.450136	  0.121461	  0.469291	  0.281060	
1.93	  0.008392	  0.000000	  0.042326	  0.327084	  0.186238	  0.401410	  0.081793	  0.038450	  0.167380	  0.093130	  0.300931	  0.003536	  0.447764	  0.121043	  0.463926	  0.280620	
1.9305	  0.008522	  0.000000	  0.043434	  0.329243	  0.189712	  0.404872	  0.081793	  0.038686	  0.163244	  0.090602	  0.302364	  0.003655	  0.445351	  0.120634	  0.458574	  0.280116	
1.931	  0.008663	  0.000000	  0.044565	  0.331389	  0.193234	  0.408307	  0.081789	  0.038936	  0.159173	  0.088122	  0.303764	  0.003778	  0.442902	  0.120234	  0.453237	  0.279547	
1.9315	  0.008814	  0.000000	  0.045720	  0.333524	  0.196804	  0.411713	  0.081780	  0.039201	  0.155168	  0.085690	  0.305132	  0.003904	  0.440418	  0.119843	  0.447918	  0.278915	
1.932	  0.008977	  0.000000	  0.046898	  0.335647	  0.200420	  0.415089	  0.081766	  0.039479	  0.151228	  0.083305	  0.306468	  0.004035	  0.437902	  0.119460	  0.442619	  0.278219	
